<svg xmlns="http://www.w3.org/2000/svg" width="17.501" height="20" viewBox="0 0 17.501 20">
  <path id="book" d="M17.5,14.063V.938A.935.935,0,0,0,16.562,0H3.75A3.751,3.751,0,0,0,0,3.75v12.5A3.751,3.751,0,0,0,3.75,20H16.563a.935.935,0,0,0,.938-.938v-.625a.945.945,0,0,0-.348-.731,8.719,8.719,0,0,1,0-2.918.93.93,0,0,0,.348-.727ZM5,5.234A.235.235,0,0,1,5.234,5h8.281a.235.235,0,0,1,.234.234v.781a.235.235,0,0,1-.234.234H5.234A.235.235,0,0,1,5,6.016Zm0,2.5A.235.235,0,0,1,5.234,7.5h8.281a.235.235,0,0,1,.234.234v.781a.235.235,0,0,1-.234.234H5.234A.235.235,0,0,1,5,8.516ZM14.9,17.5H3.75a1.25,1.25,0,1,1,0-2.5H14.9A14.02,14.02,0,0,0,14.9,17.5Z" fill="#06225d"/>
</svg>
