<svg class="cls-1" xmlns="http://www.w3.org/2000/svg" viewBox="0 0 564 116">
  <linearGradient id="a" x1="60" x2="125" gradientUnits="userSpaceOnUse">
    <stop offset="0" stop-color="#ec0c43"/>
    <stop offset="1" stop-color="#fbb03b"/>
  </linearGradient>
  <path d="M20.8 35a20.1 20.1 0 0 1 9.9-2.5 18.9 18.9 0 0 1 8.6 2 16.4 16.4 0 0 1 4.3 3.1 5.3 5.3 0 0 0 9-3.1A5.4 5.4 0 0 0 51 30a23.1 23.1 0 0 0-6.2-4.5 30.6 30.6 0 0 0-14.1-3.2 32.8 32.8 0 0 0-15.9 3.8A28 28 0 0 0 4 36.8 30 30 0 0 0 0 52a30 30 0 0 0 4 15.3 28.3 28.3 0 0 0 11 10.7 32.4 32.4 0 0 0 15.9 3.8A30.1 30.1 0 0 0 45 78.7a23.7 23.7 0 0 0 6.2-4.6 5.3 5.3 0 0 0 1.4-4.3 5.3 5.3 0 0 0-9-3.1 16.2 16.2 0 0 1-4.2 3.1 18.7 18.7 0 0 1-8.6 2 20 20 0 0 1-10-2.4 17.3 17.3 0 0 1-6.8-6.9 21.4 21.4 0 0 1-2.5-10.4A21 21 0 0 1 14 41.8a17.3 17.3 0 0 1 6.8-6.9zM184.1 0a5.7 5.7 0 0 0-5.7 5.7v25a21.8 21.8 0 0 0-7.8-6 26 26 0 0 0-11.1-2.3 29.9 29.9 0 0 0-15 3.8 26.6 26.6 0 0 0-10.3 10.4 31.2 31.2 0 0 0-4.3 15.5 31.5 31.5 0 0 0 4.3 15.6 26.4 26.4 0 0 0 10.4 10.5 29.9 29.9 0 0 0 14.9 3.7 25.7 25.7 0 0 0 11.4-2.5 22.2 22.2 0 0 0 8-6.2v2.6a5.5 5.5 0 0 0 11 0V5.7A5.7 5.7 0 0 0 184 0zm-14.6 69.4a17.3 17.3 0 0 1-9.1 2.4 18 18 0 0 1-9.4-2.4 17.4 17.4 0 0 1-6.6-7A21 21 0 0 1 142 52a21 21 0 0 1 2.5-10.4A17 17 0 0 1 151 35a18.3 18.3 0 0 1 9.4-2.4 17.6 17.6 0 0 1 9.2 2.4 16.6 16.6 0 0 1 6.5 6.9 21.4 21.4 0 0 1 2.5 10.3 21.4 21.4 0 0 1-2.5 10.3 17 17 0 0 1-6.5 7zm71.2-43.2a29.3 29.3 0 0 0-14.9-3.8 29.9 29.9 0 0 0-15 3.8 27.4 27.4 0 0 0-10.4 10.6 31 31 0 0 0-3.8 15.3 30.6 30.6 0 0 0 3.9 15.4 27.2 27.2 0 0 0 11 10.6 37 37 0 0 0 29.5 1.4 26.4 26.4 0 0 0 6.5-3.8 5 5 0 0 0 .6-7.1 5 5 0 0 0-6.7-.8 21.6 21.6 0 0 1-13.2 4 21.3 21.3 0 0 1-13.8-4.4 17.5 17.5 0 0 1-6.4-11.2l.1-.1h43a3.6 3.6 0 0 0 3.5-3.7 32.4 32.4 0 0 0-3.6-15.6 26.9 26.9 0 0 0-10.3-10.6zm3.4 21.2l-.6.2h-35.4v-.1a17.8 17.8 0 0 1 5.6-11 18.9 18.9 0 0 1 24.3 0 18 18 0 0 1 5.6 11l.5-.2zm89.5-25a30 30 0 0 0-13.3 2.9 22.8 22.8 0 0 0-8.8 7.2 19.3 19.3 0 0 0-7.8-7.3 26 26 0 0 0-12-2.8 28 28 0 0 0-11.9 2.4 20.7 20.7 0 0 0-7.5 5.7v-2a5.5 5.5 0 0 0-11 0v47.3a5.5 5.5 0 0 0 5.5 5.5h.4a5.5 5.5 0 0 0 5.5-5.5V51.2c0-6 1.5-10.6 4.5-13.7s7.1-4.8 12.2-4.8c4.6 0 8.2 1.4 10.6 4s3.7 6.8 3.7 12.2v26.9a5.5 5.5 0 0 0 5.5 5.5h.4a5.5 5.5 0 0 0 5.5-5.5V51.2c0-6 1.5-10.6 4.5-13.7s7.1-4.8 12.2-4.8c4.6 0 8.2 1.4 10.6 4s3.7 6.8 3.7 12.2v26.9a5.5 5.5 0 0 0 5.5 5.5h.4a5.5 5.5 0 0 0 5.5-5.5v-28c0-8.3-2.2-14.7-6.5-19s-10.1-6.4-17.4-6.4zm56.2 0a45 45 0 0 0-13.2 2 34.5 34.5 0 0 0-7 3 5 5 0 0 0 4.8 8.6 29.3 29.3 0 0 1 4.5-2 30.1 30.1 0 0 1 9.7-1.6c5 0 8.7 1.1 11.2 3.4s3.7 5.6 3.7 9.9v1.4a.1.1 0 0 1-.1.2h-15.8c-8.1 0-14.1 1.5-17.9 4.7a15.6 15.6 0 0 0-5.7 12.5 15.5 15.5 0 0 0 6 12.7c4 3.1 9.2 4.7 15.7 4.7a28.9 28.9 0 0 0 11.7-2.1 17.3 17.3 0 0 0 6.7-5v1a5.4 5.4 0 1 0 10.8 0V46.3c0-7.9-2.2-13.9-6.5-17.8s-10.5-6-18.6-6zm13.7 33.5v7.3a14.8 14.8 0 0 1-6 7.1 18.9 18.9 0 0 1-10 2.6c-3.8 0-6.9-.8-9-2.4a7.5 7.5 0 0 1-3.1-6.4c0-5.6 4.1-8.4 12.7-8.4h15.3a.1.1 0 0 1 .1.2zm72.7-33a5.4 5.4 0 0 0-5.4 5.5v2.5a21.9 21.9 0 0 0-8.3-6 28.2 28.2 0 0 0-11.7-2.5 30 30 0 0 0-14.6 3.5 25.8 25.8 0 0 0-10.4 10 28.2 28.2 0 0 0-3.8 14.7 28.2 28.2 0 0 0 3.9 14.7 26 26 0 0 0 10.4 10 29.7 29.7 0 0 0 14.5 3.6 27.8 27.8 0 0 0 11.3-2.3 22 22 0 0 0 8.1-5.8V74c0 6.4-1.6 11.1-4.6 14.2s-8 4.6-14.6 4.6a36.2 36.2 0 0 1-12-2 37.2 37.2 0 0 1-5-2.1 5.3 5.3 0 0 0-7 1.7 5.2 5.2 0 0 0-.7 4 5 5 0 0 0 2.3 3.2 30.4 30.4 0 0 0 7.1 3 51.8 51.8 0 0 0 15.7 2.2c10 0 17.5-2.5 22.6-7.3s7.6-12.5 7.6-22.6V28.4a5.4 5.4 0 0 0-5.4-5.5zm-5.8 27.7A18.2 18.2 0 0 1 468 60a16.4 16.4 0 0 1-6.6 6.5 18.7 18.7 0 0 1-9.4 2.3 18.9 18.9 0 0 1-9.4-2.3 16.4 16.4 0 0 1-6.7-6.5 18.2 18.2 0 0 1-2.4-9.4c0-5.6 1.6-10 5.1-13.1 3.7-3.5 7.8-5 13.4-5a17.6 17.6 0 0 1 13 5 17.1 17.1 0 0 1 5.4 13zm27.1-27.7a5.7 5.7 0 0 0-5.7 5.7v47a5.7 5.7 0 0 0 11.4 0v-47a5.7 5.7 0 0 0-5.7-5.7zM561.9 66a5.2 5.2 0 0 0-6.5.7A16.2 16.2 0 0 1 551 70a18.7 18.7 0 0 1-8.7 2 20.1 20.1 0 0 1-9.8-2.4 17.4 17.4 0 0 1-6.9-7 21.2 21.2 0 0 1-2.5-10.4 21 21 0 0 1 2.5-10.3 17.3 17.3 0 0 1 6.9-6.8 20.1 20.1 0 0 1 9.8-2.5 18.8 18.8 0 0 1 8.7 2 16.4 16.4 0 0 1 4.2 3.2 5.3 5.3 0 0 0 9-3.2 5.4 5.4 0 0 0-1.5-4.4 23.1 23.1 0 0 0-6.1-4.5 30.6 30.6 0 0 0-14.1-3.2 32.9 32.9 0 0 0-16 3.8 28 28 0 0 0-10.9 10.6 30 30 0 0 0-4 15.4 30 30 0 0 0 4 15.3 28.3 28.3 0 0 0 11 10.6 32.4 32.4 0 0 0 15.9 3.9 30.1 30.1 0 0 0 14-3.3 23.5 23.5 0 0 0 6.2-4.6 5.3 5.3 0 0 0 1.5-4.3 5.2 5.2 0 0 0-2.4-3.8z"/>
  <path d="M121.7 46.8l-16.6-8.1a1 1 0 0 1-.4-.5l-8.2-16.6a5.9 5.9 0 0 0-10.6 0l-8.1 16.6a1 1 0 0 1-.5.5l-16.6 8.1a5.9 5.9 0 0 0 0 10.6l16.6 8.2a1 1 0 0 1 .5.4L86 82.6a6 6 0 0 0 10.6 0l8.1-16.6a1 1 0 0 1 .5-.5l16.5-8.1a5.9 5.9 0 0 0 0-10.6zM109.4 48l-7.7 6.7a9.3 9.3 0 0 0-3 5.2l-2 10a.8.8 0 0 1-1.3.4l-6.8-7.7a9.4 9.4 0 0 0-5.1-3l-10-2a.8.8 0 0 1-.4-1.4l7.7-6.7a9.4 9.4 0 0 0 3-5.2l2-10A.8.8 0 0 1 87 34l6.7 7.7a9.4 9.4 0 0 0 5.2 3l10 2a.8.8 0 0 1 .4 1.3z" fill="url(#a)"/>
  <path d="M10.5 95.2H13v6.1a4.7 4.7 0 0 1 3.8-2c3 0 5.2 2.5 5.2 6.3s-2.2 6.2-5.2 6.2A4.8 4.8 0 0 1 13 110v1.7h-2.6zm5.6 14.4c2 0 3.4-1.7 3.4-4s-1.3-4-3.4-4a3.8 3.8 0 0 0-3 1.6v4.8a3.8 3.8 0 0 0 3 1.6zm9.5 4.5a1.6 1.6 0 0 0 1.7-1l.6-1.4-4.9-12h2.8l3.5 9 3.4-9h2.8l-5.7 14a4 4 0 0 1-4.1 2.7 8 8 0 0 1-1.5-.2l.4-2.3a2.6 2.6 0 0 0 1 .2zm20.8-14.5v12h-2.9V95.2h3l8.4 11.6V95.2h2.8v16.4H55zm20-.2c3.6 0 5.9 2.7 5.9 6.4v.7H63a3.6 3.6 0 0 0 3.8 3.2 5 5 0 0 0 3.4-1.3l1.2 1.7a7 7 0 0 1-4.9 1.7 6.2 6.2 0 0 1-.2-12.4zm-3.3 5.2h6.7a3.2 3.2 0 0 0-3.4-3.1 3.3 3.3 0 0 0-3.3 3.1zm10-5H76l3.4 9 3.5-9h2.8l-4.8 12H78zm19.4-.2c3.6 0 5.9 2.7 5.9 6.4v.7h-9.2a3.6 3.6 0 0 0 3.8 3.2 5 5 0 0 0 3.4-1.3l1.1 1.7a7 7 0 0 1-4.8 1.7 6.2 6.2 0 0 1-.2-12.4zm-3.3 5.2h6.7a3.2 3.2 0 0 0-3.4-3.1 3.3 3.3 0 0 0-3.3 3.1zm11.7-5h2.6v1.8a5 5 0 0 1 3.9-2v2.6a3.8 3.8 0 0 0-.9 0 4 4 0 0 0-3 1.5v8H101zm14-.2a5.3 5.3 0 0 1 4.5 2.1l-1.7 1.6a3.2 3.2 0 0 0-2.7-1.4c-2.2 0-3.6 1.6-3.6 3.9s1.4 4 3.6 4a3.2 3.2 0 0 0 2.7-1.4l1.7 1.6a5.3 5.3 0 0 1-4.5 2 6.2 6.2 0 0 1 0-12.4zm6 6.2a6.1 6.1 0 1 1 6.1 6.2 6 6 0 0 1-6-6.2zm9.6 0c0-2-1.3-4-3.5-4s-3.4 2-3.4 4 1.2 4 3.4 4 3.5-1.9 3.5-4zm13.6 4.3a4.8 4.8 0 0 1-3.8 2c-3 0-5.3-2.4-5.3-6.3s2.2-6.2 5.3-6.2a4.8 4.8 0 0 1 3.8 2v-6.2h2.6v16.4H144zm0-6.6a3.9 3.9 0 0 0-3-1.6c-2 0-3.4 1.6-3.4 4s1.3 4 3.3 4a3.9 3.9 0 0 0 3.1-1.7zm11.2-4c3.6 0 5.9 2.8 5.9 6.5v.7H152a3.6 3.6 0 0 0 3.8 3.2 5 5 0 0 0 3.3-1.3l1.2 1.7a7 7 0 0 1-4.8 1.7 6.2 6.2 0 0 1-.2-12.4zm-3.3 5.3h6.7a3.2 3.2 0 0 0-3.3-3.1 3.3 3.3 0 0 0-3.4 3.1z" opacity=".8"/>
</svg>