<svg width="16" height="16" viewBox="0 0 16 16" fill="none" xmlns="http://www.w3.org/2000/svg">
<path d="M14.2498 5.43758L10.7082 1.93758L11.8748 0.770915C12.1943 0.45147 12.5868 0.291748 13.0523 0.291748C13.5179 0.291748 13.9101 0.45147 14.229 0.770915L15.3957 1.93758C15.7151 2.25703 15.8818 2.64258 15.8957 3.09425C15.9096 3.54591 15.7568 3.93119 15.4373 4.25008L14.2498 5.43758ZM1.49984 15.5001C1.26373 15.5001 1.06567 15.4201 0.905673 15.2601C0.745673 15.1001 0.665951 14.9023 0.666507 14.6667V12.3126C0.666507 12.2015 0.68734 12.0937 0.729007 11.9892C0.770673 11.8848 0.833173 11.7912 0.916507 11.7084L9.49984 3.12508L13.0415 6.66675L4.45817 15.2501C4.37484 15.3334 4.28123 15.3959 4.17734 15.4376C4.07345 15.4792 3.96567 15.5001 3.85401 15.5001H1.49984Z" fill="#F6F6F6"/>
</svg>