<?xml version="1.0" encoding="utf-8"?>
<!-- Generator: Adobe Illustrator 25.0.1, SVG Export Plug-In . SVG Version: 6.00 Build 0)  -->
<svg version="1.1" id="android" xmlns="http://www.w3.org/2000/svg" xmlns:xlink="http://www.w3.org/1999/xlink" x="0px" y="0px"
	 viewBox="0 0 35 35" style="enable-background:new 0 0 35 35;" xml:space="preserve">
<style type="text/css">
	.st0{fill:#C6CBDE;}
</style>
<path class="st0" d="M24.9,22c-0.7,0-1.3-0.6-1.3-1.3c0-0.7,0.6-1.3,1.3-1.3c0.7,0,1.3,0.6,1.3,1.3C26.2,21.4,25.6,22,24.9,22
	 M10.1,22c-0.7,0-1.3-0.6-1.3-1.3c0-0.7,0.6-1.3,1.3-1.3c0.7,0,1.3,0.6,1.3,1.3C11.5,21.4,10.9,22,10.1,22 M25.3,13.9L28,9.3
	c0.2-0.3,0.1-0.6-0.2-0.8c-0.3-0.2-0.6-0.1-0.8,0.2l-2.7,4.7C22.3,12.5,20,12,17.5,12c-2.5,0-4.8,0.5-6.8,1.5L8,8.8
	C7.8,8.5,7.5,8.4,7.2,8.6C6.9,8.7,6.8,9.1,7,9.3l2.7,4.6C5.1,16.4,2,21,1.5,26.5h32C33,21,29.9,16.4,25.3,13.9"/>
</svg>
