<svg id="cordova" xmlns="http://www.w3.org/2000/svg" width="30" height="28.626" viewBox="0 0 30 28.626">
  <defs>
    <style>
      .cls-1 {
        fill: #c6cbde;
      }
    </style>
  </defs>
  <path id="Path_114" data-name="Path 114" class="cls-1" d="M27.252,28.626H22.385l.344-4.094H20.353l-.344,4.094H9.962l-.344-4.094H7.242l.344,4.094H2.719L0,10.906,6.813,0H23.187L30,10.906ZM21.813,5.439h-4.38l.286,2.032H12.281l.286-2.032H8.187L5.468,10.878,6.842,21.784H23.187l1.374-10.906ZM19.437,18.177c-.372,0-.687-1.145-.687-2.548s.315-2.548.687-2.548.687,1.145.687,2.548C20.1,17.061,19.809,18.177,19.437,18.177Zm-8.616.229c-.372,0-.687-1.145-.687-2.548s.315-2.548.687-2.548.687,1.145.687,2.548S11.193,18.406,10.821,18.406Z"/>
</svg>
