<svg xmlns="http://www.w3.org/2000/svg" xmlns:xlink="http://www.w3.org/1999/xlink" width="24.735" height="30.63" viewBox="0 0 24.735 30.63">
  <defs>
    <style>
      .cls-1 {
        fill: #c6cbde;
      }

      .cls-2 {
        clip-path: url(#clip-path);
      }
    </style>
    <clipPath id="clip-path">
      <path id="Path_102" data-name="Path 102" class="cls-1" d="M32.166,15.409,23.92,23.657l8.245,8.248H22.744L14.5,23.657l8.248-8.248ZM22.744,1.275,7.43,16.589,12.143,21.3,32.166,1.275Z" transform="translate(-7.43 -1.275)"/>
    </clipPath>
  </defs>
  <g id="flutterio-icon" transform="translate(-7.43 -1.275)">
    <g id="Group_98" data-name="Group 98" class="cls-2" transform="translate(7.43 1.275)">
      <path id="Path_101" data-name="Path 101" class="cls-1" d="M22.2,39.053l4.709,4.712L39.865,30.8H30.443Z" transform="translate(-15.13 -16.671)"/>
    </g>
    <g id="Group_99" data-name="Group 99" class="cls-2" transform="translate(7.43 1.275)">
      <path id="Path_103" data-name="Path 103" class="cls-1" d="M22.744,1.275h9.422L12.143,21.3,7.43,16.589Z" transform="translate(-7.43 -1.275)"/>
    </g>
    <g id="Group_100" data-name="Group 100" class="cls-2" transform="translate(7.43 1.275)">
      <path id="Path_105" data-name="Path 105" class="cls-1" d="M32.037,52.75l3.536,3.533h9.422L36.75,48.037Z" transform="translate(-20.259 -25.655)"/>
    </g>
    <g id="Group_101" data-name="Group 101" class="cls-2" transform="translate(7.43 1.275)">
      <path id="Path_107" data-name="Path 107" class="cls-1" d="M39.026,50.329,36.75,48.037,32.037,52.75Z" transform="translate(-20.259 -25.655)"/>
    </g>
    <g id="Group_102" data-name="Group 102" class="cls-2" transform="translate(7.43 1.275)">
      <path id="Path_109" data-name="Path 109" class="cls-1" d="M22.2,42.9l4.712-4.712L31.622,42.9l-4.713,4.712Z" transform="translate(-15.129 -20.52)"/>
    </g>
    <path id="Path_111" data-name="Path 111" class="cls-1" d="M32.166,15.409,23.92,23.657l8.245,8.248H22.744L14.5,23.657l8.248-8.248ZM22.744,1.275,7.43,16.589,12.143,21.3,32.166,1.275Z"/>
  </g>
</svg>
