<svg id="ionic" xmlns="http://www.w3.org/2000/svg" width="30" height="30" viewBox="0 0 30 30">
  <defs>
    <style>
      .cls-1 {
        fill: #c6cbde;
      }
    </style>
  </defs>
  <path id="Path_112" data-name="Path 112" class="cls-1" d="M34.04,27.2a6.84,6.84,0,1,0,6.84,6.84h0A6.837,6.837,0,0,0,34.04,27.2Z" transform="translate(-19.04 -19.04)"/>
  <circle id="Ellipse_6" data-name="Ellipse 6" class="cls-1" cx="3.12" cy="3.12" r="3.12" transform="translate(21.69 2.55)"/>
  <path id="Path_113" data-name="Path 113" class="cls-1" d="M28.65,8.79l-.12-.3-.21.24a4.835,4.835,0,0,1-1.89,1.29l-.21.06.09.21a12.317,12.317,0,1,1-6.06-6.33l.18.09.09-.21a4.536,4.536,0,0,1,1.38-1.8l.24-.21-.27-.15A14.809,14.809,0,0,0,15,0,15,15,0,1,0,30,15a14.742,14.742,0,0,0-1.35-6.21Z" transform="translate(0 0)"/>
</svg>
