<svg xmlns="http://www.w3.org/2000/svg" width="25.73" height="30.62" viewBox="0 0 25.73 30.62">
  <defs>
    <style>
      .cls-1 {
        fill: #c6cbde;
      }
    </style>
  </defs>
  <path id="Path_115" data-name="Path 115" class="cls-1" d="M21.513-12.257a6.382,6.382,0,0,1,3.418-5.8,7.345,7.345,0,0,0-5.79-3.049c-2.427-.191-5.079,1.415-6.05,1.415-1.025,0-3.377-1.347-5.223-1.347C4.054-20.973,0-17.992,0-11.929A17.027,17.027,0,0,0,.984-6.378c.875,2.509,4.033,8.661,7.328,8.559C10.035,2.14,11.252.957,13.494.957c2.174,0,3.3,1.224,5.223,1.224,3.322-.048,6.18-5.64,7.014-8.155A6.776,6.776,0,0,1,21.513-12.257ZM17.643-23.481a6.438,6.438,0,0,0,1.641-4.956,7.249,7.249,0,0,0-4.642,2.386,6.539,6.539,0,0,0-1.75,4.915A5.741,5.741,0,0,0,17.643-23.481Z" transform="translate(0 28.438)"/>
</svg>
