<?xml version="1.0" encoding="utf-8"?>
<!-- Generator: Adobe Illustrator 25.0.1, SVG Export Plug-In . SVG Version: 6.00 Build 0)  -->
<svg version="1.1" id="react-native" xmlns="http://www.w3.org/2000/svg" xmlns:xlink="http://www.w3.org/1999/xlink" x="0px"
	 y="0px" viewBox="0 0 35 35" style="enable-background:new 0 0 35 35;" xml:space="preserve">
<style type="text/css">
	.st0{fill:#C6CBDE;}
</style>
<path class="st0" d="M35,17.5c0,2.2-2.9,4.3-6.8,5.6c-0.2,0.1-0.4,0.1-0.6,0.2c0.1,0.3,0.1,0.6,0.2,0.9c0.8,3.9,0.2,7.2-1.7,8.2
	c-1.8,1-4.7,0-7.6-2.5c-0.3-0.3-0.6-0.6-0.9-0.8c-0.2,0.2-0.5,0.5-0.7,0.7c-3,2.6-6.1,3.7-8,2.7c-1.8-1-2.4-4-1.6-7.8
	c0.1-0.4,0.2-0.8,0.3-1.2c-0.3-0.1-0.6-0.2-0.9-0.3C2.8,21.8,0,19.7,0,17.5c0-2.1,2.6-4.1,6.3-5.3c0.4-0.1,0.8-0.3,1.3-0.4
	c-0.1-0.4-0.2-0.8-0.3-1.1c-0.8-3.9-0.2-7,1.6-8c1.9-1.1,5,0.1,8.1,2.8c0.2,0.2,0.4,0.3,0.6,0.5c0.3-0.3,0.6-0.5,0.9-0.8
	c3-2.6,5.9-3.7,7.7-2.6c1.9,1.1,2.4,4.4,1.6,8.4c-0.1,0.3-0.1,0.5-0.2,0.8c0.4,0.1,0.7,0.2,1.1,0.3C32.3,13.5,35,15.5,35,17.5z
	 M9.6,17.6c-0.6-1.4-1.2-2.9-1.7-4.4c-0.4,0.1-0.8,0.2-1.2,0.4c-3.1,1.1-5.3,2.7-5.3,3.9c0.1,0.8,0.6,1.6,1.3,2
	c1.2,1,2.9,1.7,4.3,2.1c0.3,0.1,0.6,0.2,0.8,0.3C8.4,20.5,8.9,19,9.6,17.6z M16.5,28.1c-1.1-1.1-2.1-2.4-3-3.7
	c-1.6-0.1-3.1-0.3-4.6-0.7c-0.1,0.4-0.2,0.8-0.3,1.1C8,28,8.4,30.5,9.5,31.1c0.8,0.3,1.7,0.3,2.4-0.1c1.4-0.6,2.7-1.4,3.9-2.4
	C16.1,28.5,16.3,28.3,16.5,28.1z M8.7,10.4c0.1,0.4,0.2,0.7,0.2,1.1c1.5-0.3,3-0.6,4.6-0.7c0.9-1.3,1.9-2.5,2.9-3.6
	c-0.2-0.2-0.3-0.3-0.5-0.5C13.2,4.3,10.7,3.4,9.5,4C8.5,4.6,8.1,7.1,8.7,10.4z M10.5,19.3c-0.4,1-0.8,2.1-1.1,3
	c1,0.2,2.1,0.4,3.2,0.5c-0.4-0.6-0.7-1.2-1.1-1.8C11.1,20.5,10.8,19.9,10.5,19.3z M10.5,15.9c0.3-0.6,0.6-1.2,1-1.8
	c0.3-0.6,0.7-1.2,1.1-1.7c-1.1,0.1-2.1,0.3-3.1,0.5C9.7,13.8,10,14.8,10.5,15.9z M12.7,20.4c0.5,0.9,1.1,1.8,1.7,2.7
	c1,0.1,2,0.1,3.1,0.1s2.1,0,3.2-0.1c0.6-0.9,1.1-1.8,1.7-2.7c0.5-0.9,1-1.8,1.5-2.8c-0.5-0.9-1-1.9-1.5-2.8s-1.1-1.8-1.7-2.6
	c-1-0.1-2.1-0.1-3.1-0.1s-2.1,0-3.1,0.1c-0.6,0.9-1.1,1.8-1.7,2.7c-0.6,0.9-1,1.8-1.5,2.8C11.7,18.5,12.2,19.4,12.7,20.4z
	 M14.4,17.6c0-1.7,1.4-3.1,3.1-3.1s3.1,1.4,3.1,3.1s-1.4,3.1-3.1,3.1S14.4,19.3,14.4,17.6z M15.5,10.6c1.4-0.1,2.7-0.1,4.1,0
	c-0.6-0.8-1.3-1.7-2-2.4C16.8,8.9,16.1,9.7,15.5,10.6z M19.6,24.5c-0.7,0-1.4,0-2.1,0s-1.4,0-2,0c0.7,0.9,1.4,1.7,2.1,2.5
	C18.3,26.2,18.9,25.4,19.6,24.5z M18.5,7.1c1.1,1.1,2,2.4,2.9,3.6c1.5,0.1,3.1,0.4,4.6,0.7c0.1-0.2,0.1-0.5,0.2-0.7
	c0.7-3.5,0.3-6.2-0.9-6.9c-1.1-0.6-3.5,0.2-6,2.5C19.1,6.6,18.8,6.9,18.5,7.1z M26.3,24.5c-0.1-0.3-0.1-0.6-0.2-0.8
	c-1.5,0.3-3.1,0.6-4.7,0.7c-0.9,1.3-1.8,2.5-2.9,3.7c0.3,0.3,0.6,0.5,0.9,0.8c2.5,2.1,4.8,3,5.9,2.3c0.7-0.5,1.1-1.3,1.1-2.1
	C26.7,27.6,26.7,26,26.3,24.5z M22.5,22.8c1.1-0.1,2.2-0.3,3.2-0.5c-0.3-1-0.7-2-1.2-3c-0.3,0.6-0.6,1.2-1,1.8
	C23.2,21.7,22.9,22.3,22.5,22.8z M25.7,12.9c-1-0.2-2-0.4-3.1-0.5c0.4,0.6,0.7,1.1,1,1.7c0.3,0.6,0.7,1.2,1,1.8
	C25,14.9,25.3,13.9,25.7,12.9z M33.5,17.5c0-1.2-2.2-2.9-5.4-4c-0.3-0.1-0.7-0.2-1-0.3c-0.5,1.5-1,2.9-1.7,4.3
	c0.7,1.4,1.3,2.9,1.7,4.4c0.2-0.1,0.4-0.1,0.6-0.2C31.1,20.6,33.5,18.9,33.5,17.5z"/>
</svg>
